<?xml version="1.0" encoding="utf-8"?>
<svg version="1.1" xmlns="http://www.w3.org/2000/svg" xmlns:xlink="http://www.w3.org/1999/xlink" x="0px" y="0px"
	 viewBox="0 0 512 512" style="enable-background:new 0 0 512 512;" xml:space="preserve">
<style type="text/css">
	.st0{fill:#E60000;}
	.st1{fill:#FFFFFF;}
	.st2{fill:none;}
</style>
<g id="Layer_1">
</g>
<g id="Layer_2">
</g>
<g id="Layer_3">
</g>
<g id="Layer_4">
</g>
<g id="Layer_5">
</g>
<g id="Layer_6">
</g>
<g id="Layer_7">
</g>
<g id="Layer_8">
	<g>
		<g>
			<path d="M384.6,477.8c-10.7,0-22.8-2.2-36.7-6.7c-5-1.6-10.3-3.3-15.9-5.1c-47.4-14.9-112.2-35.2-171.3-85.4
				c-32.5-27.6-59.4-61.4-80.1-100.5c-23.9-45.4-40.2-99.3-48.3-160.3c-0.1-0.5-0.1-0.9-0.1-1.4c-0.4-15.9,4-28.2,13-36.7
				c15.5-14.6,39.5-12.6,53.8-11.4c2,0.2,3.8,0.3,5.3,0.4c2.1,0.1,4.8-0.2,7.8-0.6c8.5-1.1,20.1-2.5,34.2,4.6
				c14.5,7.3,28.7,22.1,44.7,46.6c0.2,0.3,0.4,0.6,0.6,0.9c17.7,32.9,31.2,75.2-15.7,115c12.3,19.7,45.5,67.1,93.9,95.6
				c8.5-10.5,19.4-19.2,31.3-24.6c18.2-8.4,36.5-8.4,51.6,0.1c9.4,5.3,20,6.4,30.3,7.5c13.6,1.4,28.9,3,38.6,15.9
				c13.6,18.1,16.5,24.9,16.5,55.5c0,2.3,0.1,5,0.2,8c0.6,22.1,1.5,55.5-21.6,72.9C408.1,474.6,397.5,477.8,384.6,477.8z
				 M57.2,117.3C90.3,364,246.3,413,339.5,442.2c5.7,1.8,11.1,3.5,16.1,5.1c15,4.8,35.3,8.9,46.2,0.7c12.8-9.6,12.1-35.2,11.6-52.2
				c-0.1-3.1-0.2-6-0.2-8.6c0-25.2-1.1-26.6-11.5-40.5c-3-4-10-4.9-21.2-6.1c-11.6-1.2-26-2.7-39.9-10.5
				c-18-10.1-44.1,5.4-56.2,25.5c-3.4,5.6-10.6,7.7-16.4,4.7C193.5,322,150.5,243.5,148.8,240.2c-3-5.5-1.4-12.4,3.7-16
				c18.3-13.3,28.1-26.8,30.2-41.3c1.9-13.2-2.1-28.5-12.6-48.2c-28.3-42.9-41.7-41.3-54.7-39.6c-3.9,0.5-7.9,1-12.3,0.7
				c-1.9-0.1-3.9-0.3-6-0.4C86.2,94.4,69.8,93,62.4,100C58.9,103.3,57.2,109.1,57.2,117.3z M159.8,234.2L159.8,234.2L159.8,234.2z"
				/>
		</g>
		<g>
			<path d="M467.3,270.2c-6.9,0-12.5-5.6-12.5-12.5c0-109.5-89-198.5-198.5-198.5c-6.9,0-12.5-5.6-12.5-12.5
				c0-6.9,5.6-12.5,12.5-12.5c59.7,0,115.8,23.2,158,65.5c42.2,42.2,65.5,98.3,65.5,158C479.8,264.6,474.2,270.2,467.3,270.2z"/>
		</g>
		<g>
			<path d="M366.8,238.7c-6.9,0-12.5-5.6-12.5-12.5c0-40.5-33-73.5-73.5-73.5c-6.9,0-12.5-5.6-12.5-12.5s5.6-12.5,12.5-12.5
				c54.3,0,98.5,44.2,98.5,98.5C379.3,233.1,373.7,238.7,366.8,238.7z"/>
		</g>
	</g>
</g>
</svg>
