<?xml version="1.0" encoding="utf-8"?>
<svg version="1.1" xmlns="http://www.w3.org/2000/svg" xmlns:xlink="http://www.w3.org/1999/xlink" x="0px" y="0px"
	 viewBox="0 0 512 512" style="enable-background:new 0 0 512 512;" xml:space="preserve">
<style type="text/css">
	.st0{fill:#E60000;}
	.st1{fill:#FFFFFF;}
	.st2{fill:none;}
</style>
<g id="Layer_1">
</g>
<g id="Layer_2">
</g>
<g id="Layer_3">
</g>
<g id="Layer_4">
</g>
<g id="Layer_5">
</g>
<g id="Layer_6">
</g>
<g id="Layer_7">
</g>
<g id="Layer_8">
</g>
<g id="Layer_9">
</g>
<g id="Layer_10">
</g>
<g id="Layer_11">
</g>
<g id="Layer_12">
</g>
<g id="Layer_13">
</g>
<g id="Layer_14">
	<g>
		<g>
			<path class="st1" d="M255.5,393.5C179.7,393.5,118,331.8,118,256s61.7-137.5,137.5-137.5c75.8,0,137.5,61.7,137.5,137.5
				S331.3,393.5,255.5,393.5z M255.5,143.5C193.5,143.5,143,194,143,256s50.5,112.5,112.5,112.5c62,0,112.5-50.5,112.5-112.5
				S317.5,143.5,255.5,143.5z"/>
		</g>
		<g>
			<path class="st1" d="M256,111c-6.9,0-12.5-5.6-12.5-12.5v-50c0-6.9,5.6-12.5,12.5-12.5c6.9,0,12.5,5.6,12.5,12.5v50
				C268.5,105.4,262.9,111,256,111z"/>
		</g>
		<g>
			<path class="st1" d="M256,476c-6.9,0-12.5-5.6-12.5-12.5v-50c0-6.9,5.6-12.5,12.5-12.5c6.9,0,12.5,5.6,12.5,12.5v50
				C268.5,470.4,262.9,476,256,476z"/>
		</g>
		<g>
			<path class="st1" d="M463.5,268.5h-50c-6.9,0-12.5-5.6-12.5-12.5s5.6-12.5,12.5-12.5h50c6.9,0,12.5,5.6,12.5,12.5
				S470.4,268.5,463.5,268.5z"/>
		</g>
		<g>
			<path class="st1" d="M98.5,268.5h-50c-6.9,0-12.5-5.6-12.5-12.5s5.6-12.5,12.5-12.5h50c6.9,0,12.5,5.6,12.5,12.5
				S105.4,268.5,98.5,268.5z"/>
		</g>
		<g>
			<path class="st1" d="M367.4,157.1c-3.2,0-6.4-1.2-8.8-3.7c-4.9-4.9-4.9-12.8,0-17.7l35.4-35.4c4.9-4.9,12.8-4.9,17.7,0
				c4.9,4.9,4.9,12.8,0,17.7l-35.4,35.4C373.8,155.9,370.6,157.1,367.4,157.1z"/>
		</g>
		<g>
			<path class="st1" d="M109.3,415.2c-3.2,0-6.4-1.2-8.8-3.7c-4.9-4.9-4.9-12.8,0-17.7l35.4-35.4c4.9-4.9,12.8-4.9,17.7,0
				c4.9,4.9,4.9,12.8,0,17.7l-35.4,35.4C115.7,414,112.5,415.2,109.3,415.2z"/>
		</g>
		<g>
			<path class="st1" d="M402.7,415.2c-3.2,0-6.4-1.2-8.8-3.7l-35.4-35.4c-4.9-4.9-4.9-12.8,0-17.7c4.9-4.9,12.8-4.9,17.7,0
				l35.4,35.4c4.9,4.9,4.9,12.8,0,17.7C409.1,414,405.9,415.2,402.7,415.2z"/>
		</g>
		<g>
			<path class="st1" d="M144.6,157.1c-3.2,0-6.4-1.2-8.8-3.7l-35.4-35.4c-4.9-4.9-4.9-12.8,0-17.7c4.9-4.9,12.8-4.9,17.7,0
				l35.4,35.4c4.9,4.9,4.9,12.8,0,17.7C151,155.9,147.8,157.1,144.6,157.1z"/>
		</g>
	</g>
</g>
<g id="Layer_15">
</g>
<g id="Layer_16">
</g>
<g id="Layer_17">
</g>
</svg>
