<?xml version="1.0" encoding="utf-8"?>
<!-- Generator: Adobe Illustrator 24.2.3, SVG Export Plug-In . SVG Version: 6.00 Build 0)  -->
<svg version="1.1" xmlns="http://www.w3.org/2000/svg" xmlns:xlink="http://www.w3.org/1999/xlink" x="0px" y="0px"
	 viewBox="0 0 512 512" style="enable-background:new 0 0 512 512;" xml:space="preserve">
<style type="text/css">
	.st0{fill:#E60000;}
	.st1{fill:#FFFFFF;}
	.st2{fill:none;}
</style>
<g id="Layer_1">
</g>
<g id="Layer_2">
</g>
<g id="Layer_3">
</g>
<g id="Layer_4">
</g>
<g id="Layer_5">
</g>
<g id="Layer_6">
</g>
<g id="Layer_7">
</g>
<g id="Layer_8">
</g>
<g id="Layer_9">
</g>
<g id="Layer_10">
</g>
<g id="Layer_11">
</g>
<g id="Layer_12">
</g>
<g id="Layer_13">
</g>
<g id="Layer_14">
</g>
<g id="Layer_15">
</g>
<g id="Layer_16">
</g>
<g id="Layer_17">
	<g>
		<g>
			
				<image style="overflow:visible;opacity:0.1;" width="480" height="480" xlink:href="F542AD6D.png"  transform="matrix(1 0 0 1 23 23)">
			</image>
			<g>
				<circle class="st1" cx="256" cy="256" r="225"/>
			</g>
		</g>
		<g>
			<g>
				<path d="M150.1,215c-3.7,0-6.6-3-6.6-6.6v-58.2c0-3.7,3-6.6,6.6-6.6h58.2c3.7,0,6.6,3,6.6,6.6s-3,6.6-6.6,6.6h-51.6v51.6
					C156.7,212,153.8,215,150.1,215z"/>
			</g>
			<g>
				<path d="M208.4,368.5h-58.2c-3.7,0-6.6-3-6.6-6.6v-58.2c0-3.7,3-6.6,6.6-6.6s6.6,3,6.6,6.6v51.6h51.6c3.7,0,6.6,3,6.6,6.6
					C215,365.5,212,368.5,208.4,368.5z"/>
			</g>
			<g>
				<path d="M361.9,368.5h-58.2c-3.7,0-6.6-3-6.6-6.6c0-3.7,3-6.6,6.6-6.6h51.6v-51.6c0-3.7,3-6.6,6.6-6.6c3.7,0,6.6,3,6.6,6.6v58.2
					C368.5,365.5,365.5,368.5,361.9,368.5z"/>
			</g>
			<g>
				<path d="M361.9,215c-3.7,0-6.6-3-6.6-6.6v-51.6h-51.6c-3.7,0-6.6-3-6.6-6.6s3-6.6,6.6-6.6h58.2c3.7,0,6.6,3,6.6,6.6v58.2
					C368.5,212,365.5,215,361.9,215z"/>
			</g>
		</g>
	</g>
</g>
</svg>
