<?xml version="1.0" encoding="utf-8"?>
<!-- Generator: Adobe Illustrator 24.2.3, SVG Export Plug-In . SVG Version: 6.00 Build 0)  -->
<svg version="1.1" xmlns="http://www.w3.org/2000/svg" xmlns:xlink="http://www.w3.org/1999/xlink" x="0px" y="0px"
	 viewBox="0 0 512 512" style="enable-background:new 0 0 512 512;" xml:space="preserve">
<style type="text/css">
	.st0{fill:#E60000;}
	.st1{fill:#FFFFFF;}
	.st2{fill:none;}
</style>
<g id="Layer_1">
</g>
<g id="Layer_2">
</g>
<g id="Layer_3">
</g>
<g id="Layer_4">
</g>
<g id="Layer_5">
</g>
<g id="Layer_6">
</g>
<g id="Layer_7">
</g>
<g id="Layer_8">
</g>
<g id="Layer_9">
</g>
<g id="Layer_10">
</g>
<g id="Layer_11">
</g>
<g id="Layer_12">
</g>
<g id="Layer_13">
</g>
<g id="Layer_14">
</g>
<g id="Layer_15">
	<g>
		<g>
			
			<image style="overflow:visible;opacity:0.1;" width="480" height="480" xlink:href="/img/70B5A605.png"  transform="matrix(1 0 0 1 23 23)">
			</image>
			<g>
				<circle class="st1" cx="256" cy="256" r="225"/>
			</g>
		</g>
		<g>
			<path d="M255.7,326.3c-38.8,0-70.3-31.6-70.3-70.3s31.6-70.3,70.3-70.3s70.3,31.6,70.3,70.3S294.5,326.3,255.7,326.3z
				 M255.7,198.5c-31.7,0-57.5,25.8-57.5,57.5s25.8,57.5,57.5,57.5s57.5-25.8,57.5-57.5S287.4,198.5,255.7,198.5z"/>
			<path d="M256,181.9c-3.5,0-6.4-2.9-6.4-6.4v-25.6c0-3.5,2.9-6.4,6.4-6.4s6.4,2.9,6.4,6.4v25.6C262.4,179,259.5,181.9,256,181.9z"
				/>
			<path d="M256,368.5c-3.5,0-6.4-2.9-6.4-6.4v-25.6c0-3.5,2.9-6.4,6.4-6.4s6.4,2.9,6.4,6.4v25.6C262.4,365.6,259.5,368.5,256,368.5
				z"/>
			<path d="M362.1,262.4h-25.6c-3.5,0-6.4-2.9-6.4-6.4s2.9-6.4,6.4-6.4h25.6c3.5,0,6.4,2.9,6.4,6.4S365.6,262.4,362.1,262.4z"/>
			<path d="M175.5,262.4h-25.6c-3.5,0-6.4-2.9-6.4-6.4s2.9-6.4,6.4-6.4h25.6c3.5,0,6.4,2.9,6.4,6.4S179,262.4,175.5,262.4z"/>
			<path d="M313,205.4c-1.6,0-3.3-0.6-4.5-1.9c-2.5-2.5-2.5-6.5,0-9.1l18.1-18.1c2.5-2.5,6.5-2.5,9.1,0c2.5,2.5,2.5,6.5,0,9.1
				l-18.1,18.1C316.2,204.8,314.6,205.4,313,205.4z"/>
			<path d="M181,337.4c-1.6,0-3.3-0.6-4.5-1.9c-2.5-2.5-2.5-6.5,0-9.1l18.1-18.1c2.5-2.5,6.5-2.5,9.1,0c2.5,2.5,2.5,6.5,0,9.1
				l-18.1,18.1C184.3,336.8,182.6,337.4,181,337.4z"/>
			<path d="M331,337.4c-1.6,0-3.3-0.6-4.5-1.9l-18.1-18.1c-2.5-2.5-2.5-6.5,0-9.1c2.5-2.5,6.5-2.5,9.1,0l18.1,18.1
				c2.5,2.5,2.5,6.5,0,9.1C334.3,336.8,332.7,337.4,331,337.4z"/>
			<path d="M199,205.4c-1.6,0-3.3-0.6-4.5-1.9l-18.1-18.1c-2.5-2.5-2.5-6.5,0-9.1c2.5-2.5,6.5-2.5,9.1,0l18.1,18.1
				c2.5,2.5,2.5,6.5,0,9.1C202.3,204.8,200.7,205.4,199,205.4z"/>
		</g>
	</g>
</g>
<g id="Layer_16">
</g>
<g id="Layer_17">
</g>
</svg>
