<?xml version="1.0" encoding="utf-8"?>
<!-- Generator: Adobe Illustrator 24.2.3, SVG Export Plug-In . SVG Version: 6.00 Build 0)  -->
<svg version="1.1" xmlns="http://www.w3.org/2000/svg" xmlns:xlink="http://www.w3.org/1999/xlink" x="0px" y="0px"
	 viewBox="0 0 512 512" style="enable-background:new 0 0 512 512;" xml:space="preserve">
<style type="text/css">
	.st0{fill:#E60000;}
	.st1{fill:#FFFFFF;}
	.st2{fill:none;}
</style>
<g id="Layer_1">
</g>
<g id="Layer_2">
</g>
<g id="Layer_3">
</g>
<g id="Layer_4">
</g>
<g id="Layer_5">
</g>
<g id="Layer_6">
</g>
<g id="Layer_7">
</g>
<g id="Layer_8">
</g>
<g id="Layer_9">
</g>
<g id="Layer_10">
</g>
<g id="Layer_11">
</g>
<g id="Layer_12">
</g>
<g id="Layer_13">
</g>
<g id="Layer_14">
</g>
<g id="Layer_15">
</g>
<g id="Layer_16">
	<g>
		<g>
			
				<image style="overflow:visible;opacity:0.1;" width="480" height="480" xlink:href="D952037F.png"  transform="matrix(1 0 0 1 23 23)">
			</image>
			<g>
				<circle class="st1" cx="256" cy="256" r="225"/>
			</g>
		</g>
		<g>
			<path d="M338.2,362.1H170.7c-3.8,0-6.9-3.1-6.9-6.9V250.9h-21.9c-2.9,0-5.5-1.8-6.5-4.5c-1-2.7-0.3-5.8,1.9-7.7l114-99.9
				c2.6-2.3,6.5-2.3,9.2,0l114,99.9c2.2,1.9,2.9,5,1.9,7.7c-1,2.7-3.6,4.5-6.5,4.5h-24.6v104.2C345.1,359,342,362.1,338.2,362.1z
				 M177.6,348.2h153.6V243.9c0-3.8,3.1-6.9,6.9-6.9h13.1l-17.7-15.5l0,0l-77.8-68.2L160.3,237h10.3c3.8,0,6.9,3.1,6.9,6.9V348.2z"
				/>
		</g>
	</g>
</g>
<g id="Layer_17">
</g>
</svg>
