<?xml version="1.0" encoding="utf-8"?>
<svg version="1.1" xmlns="http://www.w3.org/2000/svg" xmlns:xlink="http://www.w3.org/1999/xlink" x="0px" y="0px"
	 viewBox="0 0 512 512" style="enable-background:new 0 0 512 512;" xml:space="preserve">
<style type="text/css">
	.st0{fill:none;stroke:#000000;stroke-width:25;stroke-linecap:round;stroke-linejoin:round;stroke-miterlimit:10;}
	.st1{fill:none;stroke:#000000;stroke-width:25;stroke-linejoin:round;stroke-miterlimit:10;}
	.st2{fill:#E60000;}
	.st3{fill:#FFFFFF;}
	.st4{fill:#FFFFFF;stroke:#000000;stroke-width:25;stroke-linejoin:round;stroke-miterlimit:10;}
	.st5{fill:#FFFFFF;stroke:#000000;stroke-width:25;stroke-linecap:round;stroke-linejoin:round;stroke-miterlimit:10;}
</style>
<g id="Layer_1">
</g>
<g id="Layer_2">
</g>
<g id="Layer_3">
	<path class="st1" d="M378.5,446.5h-206c-6.6,0-12-5.4-12-12v-386c0-6.6,5.4-12,12-12h206c6.6,0,12,5.4,12,12v386
		C390.5,441.1,385.1,446.5,378.5,446.5z"/>
	<path class="st4" d="M153.5,318.5c-49.7,0-90,15.7-90,35c0,8.8,8.4,16.8,22.2,23c16.5,7.4,40.8,12,67.8,12s51.3-4.6,67.8-12
		c13.8-6.2,22.2-14.2,22.2-23C243.5,334.2,203.2,318.5,153.5,318.5z"/>
	<path class="st4" d="M243,425.7c-4.6-2.3-10-4.3-15.9-6.1c-16.3,9-43.2,14.8-73.6,14.8c-20.5,0-39.4-2.7-54.6-7.2
		c-6.4-1.9-12.1-4.1-16.9-6.6V448l0.5-0.1c0.6,19.1,40.6,34.6,90,34.6c49.7,0,90-15.7,90-35C262.5,439.3,255.2,431.7,243,425.7z"/>
	<path class="st4" d="M221.3,376.5c-16.5,7.4-40.8,12-67.8,12s-51.3-4.6-67.8-12c-13.8-6.2-22.2-14.2-22.2-23v46
		c0,8,6.9,15.4,18.5,21.3c4.9,2.5,10.6,4.7,16.9,6.6c15.1,4.5,34,7.2,54.6,7.2c30.4,0,57.3-5.9,73.6-14.8
		c8.6-4.8,14.3-10.4,15.9-16.5c0.3-1.2,0.5-2.4,0.5-3.7v-46C243.5,362.3,235.1,370.3,221.3,376.5z"/>
	<line class="st5" x1="243.5" y1="411.5" x2="298.5" y2="411.5"/>
	<path d="M327.3,178.7l-43-43c0,0-0.1,0-0.1-0.1c-0.3-0.3-0.5-0.5-0.8-0.8c-0.1-0.1-0.1-0.1-0.2-0.1c-0.2-0.2-0.5-0.3-0.7-0.5
		c-0.1-0.1-0.2-0.2-0.4-0.2c-0.2-0.1-0.4-0.2-0.6-0.3c-0.1-0.1-0.3-0.2-0.4-0.2c-0.3-0.2-0.6-0.3-0.9-0.4c0,0,0,0,0,0
		c-0.1-0.1-0.3-0.1-0.4-0.2c-0.2-0.1-0.4-0.2-0.6-0.2c-0.1,0-0.3-0.1-0.4-0.1c-0.2-0.1-0.5-0.1-0.7-0.2c-0.1,0-0.2-0.1-0.4-0.1
		c-0.7-0.1-1.4-0.2-2.2-0.2c-0.1,0-0.2,0-0.3,0c-0.3,0-0.5,0-0.8,0c-0.1,0-0.2,0-0.3,0c-0.3,0-0.6,0.1-0.9,0.1c-0.1,0-0.1,0-0.2,0
		c-0.3,0.1-0.7,0.2-1,0.2c-0.1,0-0.3,0.1-0.4,0.1c-0.2,0.1-0.4,0.1-0.6,0.2c-0.1,0.1-0.3,0.1-0.4,0.2c-0.2,0.1-0.5,0.2-0.7,0.3
		c-0.1,0-0.2,0.1-0.3,0.1c-0.3,0.2-0.6,0.3-0.9,0.5c-0.1,0.1-0.2,0.1-0.3,0.2c-0.2,0.1-0.4,0.3-0.6,0.5c-0.1,0.1-0.2,0.1-0.3,0.2
		c-0.3,0.2-0.6,0.5-0.8,0.8l-43,43c-4.9,4.9-4.9,12.8,0,17.7c4.9,4.9,12.8,4.9,17.7,0l21.7-21.7v99.8c0,6.9,5.6,12.5,12.5,12.5
		s12.5-5.6,12.5-12.5v-99.8l21.7,21.7c2.4,2.4,5.6,3.7,8.8,3.7s6.4-1.2,8.8-3.7C332.2,191.5,332.2,183.5,327.3,178.7z"/>
</g>
</svg>
