<?xml version="1.0" encoding="utf-8"?>
<svg version="1.1" xmlns="http://www.w3.org/2000/svg" xmlns:xlink="http://www.w3.org/1999/xlink" x="0px" y="0px"
	 viewBox="0 0 512 512" style="enable-background:new 0 0 512 512;" xml:space="preserve">
<style type="text/css">
	.st0{fill:#E60000;}
	.st1{fill:#FFFFFF;}
	.st2{fill:none;}
</style>
<g id="Layer_1">
</g>
<g id="Layer_2">
</g>
<g id="Layer_3">
</g>
<g id="Layer_4">
</g>
<g id="Layer_5">
</g>
<g id="Layer_6">
</g>
<g id="Layer_7">
	<g>
		<path class="st2" d="M212,122.9c-36.1,29.8-59.3,77.7-59.2,122c0.1,33,12,63,33.5,84.4c19.4,19.4,45.3,30.5,70.9,30.5
			c0.1,0,0.2,0,0.3,0c0,0,0,0,0,0c62-0.2,100.2-51.5,100-98.9c-0.2-49-27.5-80.7-81.4-94.4c-5.4-0.6-10-4.6-11-10.2
			c-0.3-1.8-0.5-3.7-0.5-5.7c-0.1-25.6,10.6-49.9,28-67.8C264,89.8,235.1,103.9,212,122.9z"/>
		<path class="st2" d="M345.7,80.1c-30.1,7.3-53,34-55.7,64.4c29,8.5,51.6,22.3,67.2,41c16.8,20.1,25.3,45.5,25.4,75.5
			c0.1,30.3-11.9,60.9-32.9,84c-23.4,25.7-56.1,39.9-92.1,40h0c-0.1,0-0.3,0-0.4,0c-32.2,0-64.4-13.7-88.5-37.8
			c-26.3-26.2-40.8-62.4-40.9-102.1c-0.1-26.6,6.7-54.2,19.7-79.9c12.1-23.9,28.9-45.2,48.5-61.5c24.7-20.4,54.4-35.5,84.8-43.6
			c-8.1-1-16.4-1.6-24.9-1.6C147.1,58.5,58.5,147.1,58.5,256c0,108.9,88.6,197.5,197.5,197.5S453.5,364.9,453.5,256
			C453.5,179.4,409.6,112.8,345.7,80.1z"/>
		<path d="M413.3,98.7c-42-42-97.9-65.2-157.3-65.2S140.7,56.6,98.7,98.7c-42,42-65.2,97.9-65.2,157.3c0,59.4,23.1,115.3,65.2,157.3
			s97.9,65.2,157.3,65.2s115.3-23.1,157.3-65.2s65.2-97.9,65.2-157.3C478.5,196.6,455.4,140.7,413.3,98.7z M265.3,156.4
			c1,5.5,5.6,9.6,11,10.2c53.8,13.6,81.2,45.4,81.4,94.4c0.1,47.4-38.1,98.7-100,98.9c0,0,0,0,0,0c-0.1,0-0.2,0-0.3,0
			c-25.6,0-51.4-11.1-70.9-30.5C164.9,307.9,153,278,152.9,245c-0.1-44.3,23.1-92.2,59.2-122c23.1-19.1,52-33.2,80.8-40
			c-17.4,17.9-28.1,42.2-28,67.8C264.8,152.8,264.9,154.6,265.3,156.4z M256,453.5c-108.9,0-197.5-88.6-197.5-197.5
			c0-108.9,88.6-197.5,197.5-197.5c8.4,0,16.7,0.5,24.9,1.6c-30.3,8.1-60.1,23.2-84.8,43.6c-19.7,16.3-36.5,37.5-48.5,61.5
			c-13,25.7-19.8,53.3-19.7,79.9c0.1,39.7,14.6,75.9,40.9,102.1c24.1,24,56.3,37.8,88.5,37.8c0.1,0,0.3,0,0.4,0h0
			c36-0.1,68.7-14.3,92.1-40c21-23.1,33-53.7,32.9-84c-0.1-30-8.6-55.4-25.4-75.5c-15.6-18.7-38.2-32.4-67.2-41
			c2.7-30.4,25.5-57.1,55.7-64.4c63.9,32.7,107.8,99.3,107.8,175.9C453.5,364.9,364.9,453.5,256,453.5z"/>
	</g>
</g>
</svg>
